# xmcd
#
# Track frame offsets: 
#        150
#        21615
#        47235
#        64764
#        82125
#        96463
#        114423
#        137882
#        160936
#        175173
#        193523
#        213603
#
# Disc length: 3073 seconds
#
# Revision: 0
# Processed by: cddbd v1.5.2PL0 Copyright (c) Steve Scherf et al.
# Submitted via: ExactAudioCopy v0.99pb4
#
DISCID=b50bff0c
DTITLE=Eddie Taylor Jr. - I Got To Make This Money, Baby
DYEAR=2007
DGENRE=Blues
TTITLE0=I Got To Make This Money, Baby
TTITLE1=Salute to Eddie Taylor
TTITLE2=Train Fare Blues
TTITLE3=My Little Machine
TTITLE4=Mama, He Treats Your Daughter Mean
TTITLE5=That's All Right
TTITLE6=Goodbye Willie Kent
TTITLE7=I'm In the Mood
TTITLE8=Take Your Hand Down
TTITLE9=Just A Little Bit
TTITLE10=Biggest Blues Fan
TTITLE11=Whiskey Headed Woman
EXTD=
EXTT0=
EXTT1=
EXTT2=
EXTT3=
EXTT4=
EXTT5=
EXTT6=
EXTT7=
EXTT8=
EXTT9=
EXTT10=
EXTT11=
PLAYORDER=
